# xmcd
# 
# Track frame offsets:
#     150
#     16230
#     32900
#     52275
#     65342
#     79135
#     96070
#     105297
#     119652
#     138610
#     150792
#     160602
#     176907
#     191040
#     205242
#     223277
#     237462
#     252007
#     267212
#     281202
#     300940
# 
# Disc length: 4211
# 
# Revision: 0
# Processed by: cddbd v1.5.2PL0 Copyright (c) Steve Scherf et al.
# Submitted via: fre:ac v1.0.27
# 
DISCID=2c107115
DTITLE=Jerry Lee Lewis - At The Palmino
DYEAR=1991
DGENRE=Blues
TTITLE0=You Win Again
TTITLE1=What Made Milwaukee Famous
TTITLE2=What I'd Say
TTITLE3=Meat Man
TTITLE4=Another Place, Another Time
TTITLE5=I Can't Stop Loving You
TTITLE6=Your Cheatin' Heart
TTITLE7=Big Legged Woman
TTITLE8=Whole Lotta Shakin' Goin' On
TTITLE9=Great Balls of Fire
TTITLE10=Rockin' My Life Away
TTITLE11=Harbour Lights
TTITLE12=Bottles And Barestools
TTITLE13=You Belong To Me
TTITLE14=Who's Gonna Play This Old Piano?
TTITLE15=Careless Hands
TTITLE16=Trouble In Mind
TTITLE17=Who Will The Next Fool Will Be?
TTITLE18=Touching Home
TTITLE19=More To Love Than This
TTITLE20=Cold, Cold Heart
EXTD=
EXTT0=
EXTT1=
EXTT2=
EXTT3=
EXTT4=
EXTT5=
EXTT6=
EXTT7=
EXTT8=
EXTT9=
EXTT10=
EXTT11=
EXTT12=
EXTT13=
EXTT14=
EXTT15=
EXTT16=
EXTT17=
EXTT18=
EXTT19=
EXTT20=
PLAYORDER=
